<?xml version="1.0" encoding="utf-8"?>
<!-- Generator: Adobe Illustrator 16.0.0, SVG Export Plug-In . SVG Version: 6.00 Build 0)  -->
<!DOCTYPE svg PUBLIC "-//W3C//DTD SVG 1.1//EN" "http://www.w3.org/Graphics/SVG/1.1/DTD/svg11.dtd">
<svg version="1.1" id="Layer_1" xmlns="http://www.w3.org/2000/svg" xmlns:xlink="http://www.w3.org/1999/xlink" x="0px" y="0px"
	 width="162.851px" height="25px" viewBox="0 0 162.851 25" enable-background="new 0 0 162.851 25" xml:space="preserve">
<g>
	<path fill="#292929" d="M22.673,25c-0.249,0-0.474-0.101-0.65-0.288c-0.534-0.576-0.465-1.908-0.445-2.169L21.56,1.165l0.014-0.408
		c0.008-0.168,0.012-0.271,0.456-0.334l0.006-0.071l0.389,0.033c0.907-0.061,2.792-0.061,6.717-0.061
		c7.788,0,8.035,9.727,8.036,9.825l-0.004,12.536c-0.001,0.415,0.28,1.294,0.655,1.352l-0.13,0.839
		c-1.057-0.164-1.376-1.666-1.375-2.195l0.005-0.193l0-12.331c-0.006-0.359-0.235-8.983-7.187-8.983
		c-4.399,0-6.077,0.01-6.717,0.017v21.384c-0.055,0.774,0.088,1.515,0.239,1.576L22.673,25z"/>
	<path fill="#292929" d="M58.327,24.575h-0.849V10.434c-0.006-0.217-0.127-5.654,2.596-8.455c1.039-1.07,2.355-1.611,3.912-1.611
		c6.212,0,6.842,8.573,6.901,9.892h0.005v0.174l-0.849,0.006c-0.001-0.092-0.198-9.223-6.058-9.223c-1.318,0-2.43,0.456-3.304,1.354
		c-2.475,2.545-2.356,7.797-2.354,7.85V24.575z"/>
	<path fill="#292929" d="M115.319,25c-7.146,0-7.748-6.364-7.753-6.43c-0.014-0.169-0.117-0.989-0.955-0.989v-0.85
		c1.335,0,1.764,1.163,1.8,1.777c0.021,0.223,0.558,5.643,6.908,5.643c6.231,0,6.903-4.088,6.903-5.846c0-1.318,0-5.326-6.903-5.326
		c-7.728,0-7.728-4.483-7.728-6.636c0-1.462,0.541-6.23,7.508-6.23c4.472,0,5.76,3.69,6.529,5.896
		c0.096,0.277,0.28,0.801,0.512,1.034l-0.598,0.602c-0.329-0.326-0.534-0.828-0.689-1.276c-0.768-2.202-1.885-5.406-5.754-5.406
		c-6.009,0-6.657,3.762-6.657,5.381c0,2.164,0,5.787,6.877,5.787c5.145,0,7.753,2.077,7.753,6.175
		C123.072,19.876,122.513,25,115.319,25z"/>
	<path fill="#292929" d="M133.67,25c-7.146,0-7.746-6.364-7.752-6.43c-0.059-0.446-0.303-1.114-0.547-1.114
		c-0.003,0-0.004,0-0.007,0l-0.043-0.848c1.137-0.061,1.417,1.676,1.442,1.873c0.021,0.25,0.555,5.67,6.906,5.67
		c6.229,0,6.904-4.088,6.904-5.846c0-1.318,0-5.326-6.904-5.326c-7.727,0-7.727-4.483-7.727-6.636c0-1.874,0.714-6.23,7.318-6.23
		c4.654,0,6.065,4.036,6.744,5.975c0.241,0.691,0.503,0.986,0.878,0.986v0.849c-1.139,0-1.544-1.17-1.679-1.555
		c-0.659-1.889-1.891-5.405-5.943-5.405c-5.629,0-6.469,3.371-6.469,5.381c0,2.164,0,5.787,6.877,5.787
		c5.144,0,7.754,2.077,7.754,6.175C141.424,19.876,140.864,25,133.67,25z"/>
	<path fill="#292929" d="M104.637,24.72c-0.313,0-0.594-0.12-0.812-0.352c-0.596-0.637-0.531-1.967-0.522-2.116V10.223
		c-0.009-0.367-0.284-9.172-8.671-9.172h-8.105v23.524h-0.851V0.626h0.422V0.202h8.534c9.226,0,9.519,9.912,9.521,10.013v12.063
		c-0.029,0.482,0.043,1.244,0.295,1.509c0.056,0.06,0.11,0.085,0.19,0.085V24.72z"/>
	<rect x="86.099" y="10.748" fill="#292929" width="12.075" height="0.85"/>
	<path fill="#292929" d="M153.343,25c-6.957,0-10.787-4.155-10.787-11.701l0.004-12.944h0.424c10.954,0,18.821,0.021,18.821,0.021
		l1.046,0.002l-13.022,12.635l-0.592-0.61l11.524-11.182c-2.442-0.004-8.96-0.016-17.351-0.017l-0.004,12.094
		c0,7.099,3.435,10.853,9.937,10.853c2.379,0,3.419-0.562,4.626-1.213c0.172-0.094,0.347-0.188,0.53-0.282
		c0.133-0.07,0.3-0.181,0.483-0.302c0.74-0.484,1.663-1.088,2.356-0.654l-0.448,0.721c-0.236-0.146-1.08,0.408-1.441,0.645
		c-0.212,0.139-0.404,0.263-0.56,0.344c-0.178,0.093-0.35,0.186-0.518,0.276C157.12,24.361,155.937,25,153.343,25z"/>
	<path fill="#292929" d="M10.863,25C3.857,25,0,20.815,0,13.216L0.003,0.183h0.424c11.036,0,18.959,0.02,18.959,0.02l1.043,0.002
		L7.321,12.926l-0.591-0.61L18.339,1.05C15.887,1.045,9.317,1.033,0.852,1.033L0.849,13.216c0,7.154,3.462,10.936,10.014,10.936
		c2.398,0,3.448-0.567,4.664-1.224c0.172-0.093,0.348-0.188,0.53-0.283c0.136-0.071,0.306-0.183,0.492-0.306
		c0.745-0.486,1.67-1.092,2.366-0.656l-0.449,0.721c-0.235-0.148-1.088,0.409-1.452,0.646c-0.214,0.141-0.409,0.267-0.564,0.348
		c-0.179,0.093-0.351,0.186-0.52,0.277C14.668,24.356,13.476,25,10.863,25z"/>
	<rect x="37.629" y="24.151" fill="#292929" width="17.446" height="0.849"/>
	<polygon fill="#292929" points="83.265,24.575 82.415,24.575 82.415,1.75 67.07,13.837 66.544,13.17 83.265,0 	"/>
</g>
</svg>
