<?xml version="1.0" encoding="utf-8"?>
<!-- Generator: Adobe Illustrator 16.0.0, SVG Export Plug-In . SVG Version: 6.00 Build 0)  -->
<!DOCTYPE svg PUBLIC "-//W3C//DTD SVG 1.1//EN" "http://www.w3.org/Graphics/SVG/1.1/DTD/svg11.dtd">
<svg version="1.1" id="Layer_1" xmlns="http://www.w3.org/2000/svg" xmlns:xlink="http://www.w3.org/1999/xlink" x="0px" y="0px"
	 width="390.844px" height="60px" viewBox="0 0 390.844 60" enable-background="new 0 0 390.844 60" xml:space="preserve">
<g>
	<path fill="#292929" d="M54.416,60c-0.598,0-1.137-0.242-1.56-0.693c-1.281-1.379-1.116-4.578-1.069-5.203L51.745,2.796
		l0.034-0.979c0.018-0.403,0.027-0.652,1.094-0.802l0.016-0.17l0.934,0.078c2.177-0.146,6.7-0.146,16.121-0.146
		c18.69,0,19.282,23.345,19.286,23.581l-0.01,30.086c-0.004,0.998,0.67,3.104,1.572,3.244l-0.312,2.014
		c-2.535-0.393-3.304-4-3.298-5.27l0.012-0.465L87.19,24.375c-0.014-0.863-0.565-21.559-17.247-21.559
		c-10.558,0-14.585,0.023-16.121,0.041v51.321c-0.132,1.859,0.212,3.635,0.574,3.783L54.416,60z"/>
	<path fill="#292929" d="M139.984,58.982h-2.038V25.041c-0.016-0.521-0.306-13.57,6.229-20.291c2.494-2.567,5.652-3.867,9.388-3.867
		c14.91,0,16.42,20.575,16.563,23.74h0.012v0.418l-2.036,0.016c-0.003-0.222-0.476-22.135-14.539-22.135
		c-3.164,0-5.831,1.094-7.929,3.25c-5.938,6.107-5.655,18.713-5.651,18.84V58.982z"/>
	<path fill="#292929" d="M276.769,60c-17.151,0-18.597-15.275-18.609-15.432c-0.034-0.404-0.281-2.373-2.292-2.373v-2.039
		c3.206,0,4.233,2.791,4.32,4.266c0.054,0.533,1.336,13.541,16.581,13.541c14.953,0,16.566-9.812,16.566-14.029
		c0-3.162,0-12.781-16.566-12.781c-18.55,0-18.55-10.759-18.55-15.927c0-3.509,1.3-14.953,18.019-14.953
		c10.734,0,13.825,8.857,15.672,14.149c0.23,0.664,0.676,1.923,1.227,2.48l-1.433,1.445c-0.789-0.783-1.281-1.988-1.656-3.062
		c-1.841-5.284-4.523-12.974-13.81-12.974c-14.417,0-15.973,9.029-15.973,12.914c0,5.193,0,13.889,16.504,13.889
		c12.348,0,18.605,4.986,18.605,14.82C295.374,47.703,294.031,60,276.769,60z"/>
	<path fill="#292929" d="M320.808,60c-17.148,0-18.59-15.275-18.604-15.432c-0.141-1.072-0.727-2.676-1.312-2.676
		c-0.005,0-0.009,0-0.016,0.002l-0.102-2.035c2.727-0.146,3.398,4.021,3.46,4.498c0.051,0.598,1.329,13.605,16.574,13.605
		c14.953,0,16.57-9.812,16.57-14.029c0-3.162,0-12.781-16.57-12.781c-18.543,0-18.543-10.759-18.543-15.927
		c0-4.497,1.715-14.953,17.563-14.953c11.171,0,14.558,9.686,16.187,14.339c0.579,1.659,1.207,2.367,2.109,2.367v2.037
		c-2.733,0-3.71-2.808-4.031-3.731c-1.582-4.533-4.538-12.973-14.265-12.973c-13.509,0-15.524,8.091-15.524,12.914
		c0,5.193,0,13.889,16.504,13.889c12.348,0,18.609,4.986,18.609,14.82C339.417,47.703,338.077,60,320.808,60z"/>
	<path fill="#292929" d="M251.128,59.328c-0.75,0-1.425-0.289-1.949-0.844c-1.43-1.527-1.277-4.721-1.254-5.08v-28.87
		c-0.023-0.882-0.683-22.013-20.812-22.013h-19.453v56.46h-2.039V1.503h1.013V0.485h20.479c22.146,0,22.849,23.789,22.852,24.031
		v28.953c-0.07,1.156,0.105,2.984,0.708,3.621c0.133,0.143,0.265,0.201,0.456,0.201V59.328z"/>
	<rect x="206.64" y="25.795" fill="#292929" width="28.978" height="2.039"/>
	<path fill="#292929" d="M368.023,60c-16.695,0-25.888-9.973-25.888-28.082l0.008-31.067h1.02c26.285,0,45.168,0.049,45.168,0.049
		l2.513,0.006L359.586,31.23l-1.419-1.463l27.661-26.836c-5.864-0.011-21.508-0.039-41.646-0.04l-0.008,29.027
		c0,17.037,8.246,26.045,23.849,26.045c5.711,0,8.203-1.35,11.102-2.912c0.413-0.223,0.835-0.449,1.273-0.676
		c0.32-0.168,0.719-0.432,1.159-0.725c1.777-1.162,3.992-2.609,5.656-1.568l-1.078,1.729c-0.565-0.35-2.59,0.979-3.457,1.547
		c-0.507,0.332-0.973,0.631-1.343,0.824c-0.427,0.223-0.837,0.445-1.242,0.664C377.089,58.467,374.25,60,368.023,60z"/>
	<path fill="#292929" d="M26.072,60C9.258,60,0,49.959,0,31.719L0.006,0.439h1.02c26.484,0,45.501,0.048,45.501,0.048l2.504,0.004
		L17.572,31.023l-1.419-1.464L44.014,2.52C38.13,2.508,22.362,2.479,2.045,2.479l-0.008,29.24c0,17.168,8.31,26.244,24.034,26.244
		c5.755,0,8.274-1.361,11.191-2.936c0.414-0.225,0.834-0.453,1.273-0.68c0.325-0.17,0.733-0.439,1.181-0.732
		c1.788-1.168,4.008-2.621,5.679-1.576l-1.078,1.729c-0.565-0.355-2.612,0.982-3.484,1.553c-0.515,0.336-0.98,0.639-1.354,0.834
		c-0.428,0.223-0.842,0.445-1.247,0.666C35.203,58.455,32.342,60,26.072,60z"/>
	<rect x="90.31" y="57.963" fill="#292929" width="41.87" height="2.037"/>
	<polygon fill="#292929" points="199.836,58.982 197.796,58.982 197.796,4.2 160.969,33.209 159.707,31.607 199.836,0 	"/>
</g>
</svg>
