<?xml version="1.0" encoding="utf-8"?>
<!-- Generator: Adobe Illustrator 16.0.0, SVG Export Plug-In . SVG Version: 6.00 Build 0)  -->
<!DOCTYPE svg PUBLIC "-//W3C//DTD SVG 1.1//EN" "http://www.w3.org/Graphics/SVG/1.1/DTD/svg11.dtd">
<svg version="1.1" id="Layer_1" xmlns="http://www.w3.org/2000/svg" xmlns:xlink="http://www.w3.org/1999/xlink" x="0px" y="0px"
	 width="130.28px" height="20px" viewBox="0 0 130.28 20" enable-background="new 0 0 130.28 20" xml:space="preserve">
<g>
	<path fill="#878787" d="M18.138,20c-0.199,0-0.379-0.081-0.52-0.231c-0.427-0.459-0.372-1.525-0.356-1.734L17.248,0.933
		l0.011-0.326c0.007-0.135,0.01-0.218,0.365-0.268l0.005-0.057l0.312,0.025c0.726-0.049,2.233-0.049,5.373-0.049
		c6.23,0,6.428,7.782,6.429,7.861l-0.003,10.028c-0.001,0.333,0.224,1.034,0.523,1.081l-0.104,0.672
		c-0.846-0.131-1.102-1.334-1.1-1.757l0.004-0.155l-0.001-9.864c-0.004-0.288-0.188-7.187-5.749-7.187
		c-3.519,0-4.861,0.008-5.373,0.014V18.06c-0.044,0.619,0.07,1.211,0.19,1.261L18.138,20z"/>
	<path fill="#878787" d="M46.661,19.661h-0.68V8.347c-0.005-0.174-0.102-4.523,2.077-6.764c0.83-0.855,1.884-1.289,3.129-1.289
		c4.97,0,5.474,6.858,5.521,7.914h0.004v0.139l-0.679,0.006c-0.001-0.074-0.159-7.379-4.847-7.379c-1.055,0-1.943,0.365-2.643,1.084
		c-1.98,2.035-1.885,6.237-1.884,6.279V19.661z"/>
	<path fill="#878787" d="M92.256,20c-5.718,0-6.199-5.092-6.203-5.144c-0.012-0.135-0.094-0.791-0.765-0.791v-0.68
		c1.069,0,1.411,0.93,1.44,1.422c0.018,0.178,0.445,4.514,5.527,4.514c4.984,0,5.521-3.271,5.521-4.677c0-1.054,0-4.261-5.521-4.261
		c-6.184,0-6.184-3.586-6.184-5.309c0-1.17,0.434-4.984,6.007-4.984c3.578,0,4.607,2.952,5.224,4.717
		c0.076,0.221,0.225,0.641,0.409,0.826l-0.479,0.482c-0.263-0.262-0.427-0.663-0.552-1.021c-0.613-1.762-1.508-4.324-4.603-4.324
		c-4.807,0-5.325,3.01-5.325,4.305c0,1.73,0,4.629,5.502,4.629c4.115,0,6.201,1.662,6.201,4.94C98.457,15.901,98.01,20,92.256,20z"
		/>
	<path fill="#878787" d="M106.936,20c-5.716,0-6.197-5.092-6.202-5.144c-0.047-0.357-0.242-0.893-0.438-0.893
		c-0.001,0-0.003,0-0.005,0.001l-0.034-0.679c0.909-0.049,1.133,1.341,1.153,1.5c0.018,0.199,0.443,4.535,5.525,4.535
		c4.984,0,5.523-3.271,5.523-4.677c0-1.054,0-4.261-5.523-4.261c-6.182,0-6.182-3.586-6.182-5.309c0-1.499,0.572-4.984,5.854-4.984
		c3.724,0,4.854,3.229,5.396,4.779c0.193,0.553,0.403,0.789,0.703,0.789v0.68c-0.911,0-1.236-0.937-1.344-1.244
		c-0.526-1.512-1.513-4.324-4.755-4.324c-4.503,0-5.175,2.697-5.175,4.305c0,1.73,0,4.629,5.502,4.629
		c4.115,0,6.203,1.662,6.203,4.94C113.139,15.901,112.691,20,106.936,20z"/>
	<path fill="#878787" d="M83.709,19.776c-0.25,0-0.476-0.097-0.65-0.281c-0.477-0.51-0.425-1.574-0.417-1.693V8.179
		c-0.008-0.295-0.229-7.338-6.938-7.338H69.22v18.82h-0.68V0.501h0.337v-0.34h6.827c7.381,0,7.615,7.93,7.617,8.011v9.651
		c-0.023,0.385,0.034,0.994,0.235,1.207c0.044,0.047,0.088,0.066,0.152,0.066V19.776z"/>
	<rect x="68.879" y="8.599" fill="#878787" width="9.659" height="0.68"/>
	<path fill="#878787" d="M122.674,20c-5.565,0-8.629-3.324-8.629-9.36l0.003-10.355h0.339c8.763,0,15.057,0.016,15.057,0.016
		l0.837,0.002L119.861,10.41l-0.473-0.487l9.22-8.945c-1.954-0.004-7.169-0.014-13.881-0.014l-0.003,9.676
		c0,5.679,2.748,8.682,7.949,8.682c1.903,0,2.734-0.45,3.7-0.971c0.138-0.074,0.278-0.15,0.425-0.226
		c0.106-0.056,0.239-0.144,0.387-0.241c0.592-0.388,1.331-0.87,1.886-0.523l-0.359,0.576c-0.189-0.116-0.864,0.326-1.153,0.516
		c-0.169,0.111-0.323,0.211-0.447,0.275c-0.142,0.074-0.279,0.148-0.414,0.221C125.696,19.489,124.749,20,122.674,20z"/>
	<path fill="#878787" d="M8.689,20C3.086,20,0,16.653,0,10.573L0.002,0.146h0.34c8.828,0,15.167,0.017,15.167,0.017l0.835,0.001
		L5.856,10.341L5.384,9.853l9.287-9.013C12.709,0.836,7.453,0.826,0.682,0.826l-0.003,9.747c0,5.723,2.771,8.748,8.011,8.748
		c1.919,0,2.759-0.454,3.731-0.979c0.138-0.075,0.278-0.151,0.424-0.227c0.108-0.057,0.245-0.146,0.394-0.244
		c0.596-0.39,1.336-0.874,1.893-0.525l-0.359,0.576c-0.188-0.119-0.87,0.327-1.161,0.518c-0.171,0.111-0.327,0.213-0.451,0.277
		c-0.143,0.074-0.28,0.148-0.416,0.223C11.734,19.485,10.78,20,8.689,20z"/>
	<rect x="30.103" y="19.321" fill="#878787" width="13.957" height="0.679"/>
	<polygon fill="#878787" points="66.611,19.661 65.932,19.661 65.932,1.399 53.656,11.069 53.235,10.536 66.611,0 	"/>
</g>
</svg>
