<?xml version="1.0" encoding="utf-8"?>
<!-- Generator: Adobe Illustrator 16.0.0, SVG Export Plug-In . SVG Version: 6.00 Build 0)  -->
<!DOCTYPE svg PUBLIC "-//W3C//DTD SVG 1.1//EN" "http://www.w3.org/Graphics/SVG/1.1/DTD/svg11.dtd">
<svg version="1.1" id="Layer_1" xmlns="http://www.w3.org/2000/svg" xmlns:xlink="http://www.w3.org/1999/xlink" x="0px" y="0px"
	 width="16px" height="16px" viewBox="0 0 16 16" enable-background="new 0 0 16 16" xml:space="preserve">
<g>
	<path fill="#E4E4E4" d="M6.387,12.594c0.189,0.2,0.506,0.209,0.707,0.02l4.5-4.25C11.693,8.269,11.75,8.138,11.75,8
		s-0.057-0.269-0.156-0.363l-4.5-4.25C6.996,3.295,6.873,3.25,6.75,3.25c-0.133,0-0.266,0.053-0.363,0.156
		c-0.189,0.201-0.181,0.518,0.02,0.707L10.521,8l-4.115,3.887C6.206,12.076,6.197,12.393,6.387,12.594z"/>
	<path fill="#E4E4E4" d="M8,16c2.137,0,4.146-0.832,5.656-2.344C15.168,12.146,16,10.137,16,8s-0.832-4.146-2.344-5.656
		C12.146,0.832,10.137,0,8,0S3.854,0.832,2.344,2.344C0.832,3.854,0,5.863,0,8s0.832,4.146,2.344,5.656C3.854,15.168,5.863,16,8,16z
		 M3.051,3.051C4.373,1.729,6.131,1,8,1s3.627,0.729,4.949,2.051S15,6.131,15,8s-0.729,3.627-2.051,4.949S9.869,15,8,15
		s-3.627-0.729-4.949-2.051S1,9.869,1,8S1.729,4.373,3.051,3.051z"/>
</g>
</svg>
