<?xml version="1.0" encoding="utf-8"?>
<!-- Generator: Adobe Illustrator 16.0.0, SVG Export Plug-In . SVG Version: 6.00 Build 0)  -->
<!DOCTYPE svg PUBLIC "-//W3C//DTD SVG 1.1//EN" "http://www.w3.org/Graphics/SVG/1.1/DTD/svg11.dtd">
<svg version="1.1" id="Layer_1" xmlns="http://www.w3.org/2000/svg" xmlns:xlink="http://www.w3.org/1999/xlink" x="0px" y="0px"
	 width="16px" height="16px" viewBox="0 0 16 16" enable-background="new 0 0 16 16" xml:space="preserve">
<g>
	<path fill="#E4E4E4" d="M14.5,8c0-3.584-2.916-6.5-6.5-6.5S1.5,4.416,1.5,8c0,2.443,1.357,4.577,3.356,5.688l-1.46,1.459
		c-0.195,0.195-0.195,0.513,0,0.707C3.494,15.951,3.622,16,3.75,16s0.256-0.049,0.354-0.146l1.727-1.728
		C6.51,14.367,7.239,14.5,8,14.5c0.762,0,1.49-0.133,2.17-0.374l1.727,1.728C11.994,15.951,12.122,16,12.25,16
		s0.256-0.049,0.354-0.146c0.195-0.194,0.195-0.512,0-0.707l-1.459-1.459C13.143,12.577,14.5,10.443,14.5,8z M10.279,13.003
		c-0.137-0.009-0.277,0.038-0.383,0.144c-0.008,0.008-0.013,0.017-0.021,0.023C9.291,13.383,8.659,13.5,8,13.5
		s-1.292-0.117-1.877-0.33c-0.007-0.008-0.012-0.018-0.019-0.023c-0.105-0.104-0.246-0.151-0.384-0.144
		C3.822,12.135,2.5,10.221,2.5,8c0-3.033,2.467-5.5,5.5-5.5s5.5,2.467,5.5,5.5C13.5,10.221,12.178,12.135,10.279,13.003z"/>
	<path fill="#E4E4E4" d="M10.225,8.553L8.5,7.691V5c0-0.276-0.224-0.5-0.5-0.5S7.5,4.724,7.5,5v3c0,0.189,0.107,0.362,0.276,0.447
		l2,1C9.848,9.482,9.924,9.5,10,9.5c0.184,0,0.359-0.102,0.447-0.275C10.57,8.977,10.471,8.676,10.225,8.553z"/>
	<path fill="#E4E4E4" d="M4.479,0.855c-0.053-0.176-0.2-0.309-0.38-0.345l-2.5-0.5C1.435-0.023,1.265,0.028,1.146,0.146l-1,1
		C0.028,1.265-0.023,1.434,0.01,1.598l0.5,2.5c0.036,0.181,0.169,0.327,0.345,0.38C0.903,4.493,0.952,4.5,1,4.5
		c0.131,0,0.258-0.051,0.354-0.146l3-3C4.484,1.223,4.532,1.031,4.479,0.855z M1.307,2.986L1.043,1.664l0.621-0.622l1.322,0.265
		L1.307,2.986z"/>
	<path fill="#E4E4E4" d="M15,4.5c0.049,0,0.098-0.007,0.145-0.021c0.178-0.054,0.311-0.2,0.347-0.38l0.5-2.5
		c0.032-0.164-0.019-0.333-0.138-0.452l-1-1c-0.117-0.119-0.287-0.17-0.451-0.137l-2.5,0.5c-0.182,0.036-0.327,0.169-0.381,0.345
		s-0.006,0.368,0.125,0.499l3,3C14.742,4.449,14.869,4.5,15,4.5z M14.336,1.042l0.621,0.622l-0.264,1.322l-1.68-1.679L14.336,1.042z
		"/>
</g>
</svg>
