<?xml version="1.0" encoding="utf-8"?>
<!-- Generator: Adobe Illustrator 16.0.0, SVG Export Plug-In . SVG Version: 6.00 Build 0)  -->
<!DOCTYPE svg PUBLIC "-//W3C//DTD SVG 1.1//EN" "http://www.w3.org/Graphics/SVG/1.1/DTD/svg11.dtd">
<svg version="1.1" id="Layer_1" xmlns="http://www.w3.org/2000/svg" xmlns:xlink="http://www.w3.org/1999/xlink" x="0px" y="0px"
	 width="18px" height="18px" viewBox="0 0 18 18" enable-background="new 0 0 18 18" xml:space="preserve">
<g>
	<g>
		<path fill="#E4E4E4" d="M12.772,10.29c-0.22-0.22-0.575-0.22-0.795,0l-0.446,0.446L10.46,9.664
			c0.844-1.022,1.353-2.332,1.353-3.758C11.812,2.649,9.163,0,5.906,0S0,2.649,0,5.906s2.649,5.906,5.906,5.906
			c1.426,0,2.735-0.508,3.758-1.353l1.072,1.071l-0.446,0.447c-0.22,0.219-0.22,0.574,0,0.795l5.062,5.062
			C15.462,17.945,15.606,18,15.75,18s0.288-0.055,0.397-0.164l1.688-1.688c0.22-0.221,0.22-0.576,0-0.795L12.772,10.29z
			 M1.125,5.906c0-2.636,2.145-4.781,4.781-4.781s4.781,2.145,4.781,4.781s-2.145,4.781-4.781,4.781S1.125,8.542,1.125,5.906z
			 M15.75,16.643l-4.268-4.269l0.893-0.891l4.268,4.266L15.75,16.643z"/>
	</g>
</g>
</svg>
